# xmcd
#
# Track frame offsets: 
#        150
#        10184
#        22779
#        38929
#        94097
#        149825
#        160249
#        175201
#        197383
#        214483
#        236205
#        254659
#
# Disc length: 3692 seconds
#
# Revision: 0
# Processed by: cddbd v1.5.1PL0 Copyright (c) Steve Scherf et al.
# Submitted via: ExactAudioCopy v0.95a4
#
DISCID=a90e6a0c
DTITLE=James Brown - Hall Of Fame
DYEAR=2004
DGENRE=Soul
TTITLE0=Give It Up Or Turn It Loose (Live)
TTITLE1=Get On The Good Foot (Live)
TTITLE2=I Got The Feeling (Live)
TTITLE3=It's A Man's, Man's World (Live)
TTITLE4=Super Bad (Live)
TTITLE5=Papa's Got A Brand New Bag (Live)
TTITLE6=I Got You (Live)
TTITLE7=It's Too Funky In Here (Live)
TTITLE8=Gonna Have A Funky Good Time
TTITLE9=Sex Machine (Live)
TTITLE10=Cold Sweat
TTITLE11=Hot Pants
EXTD=
EXTT0=
EXTT1=
EXTT2=
EXTT3=
EXTT4=
EXTT5=
EXTT6=
EXTT7=
EXTT8=
EXTT9=
EXTT10=
EXTT11=
PLAYORDER=
